<svg id="visual" viewBox="0 0 960 300" width="960" height="300" xmlns="http://www.w3.org/2000/svg" xmlns:xlink="http://www.w3.org/1999/xlink" version="1.1"><rect x="0" y="0" width="960" height="300" fill="#00252A"></rect><path d="M0 231L20 233C40 235 80 239 120 235.2C160 231.3 200 219.7 240 221.5C280 223.3 320 238.7 360 240C400 241.3 440 228.7 480 226.2C520 223.7 560 231.3 600 240.7C640 250 680 261 720 260.2C760 259.3 800 246.7 840 245C880 243.3 920 252.7 940 257.3L960 262L960 0L940 0C920 0 880 0 840 0C800 0 760 0 720 0C680 0 640 0 600 0C560 0 520 0 480 0C440 0 400 0 360 0C320 0 280 0 240 0C200 0 160 0 120 0C80 0 40 0 20 0L0 0Z" fill="#00252a"></path><path d="M0 176L20 173.5C40 171 80 166 120 170.3C160 174.7 200 188.3 240 192.7C280 197 320 192 360 189.8C400 187.7 440 188.3 480 184C520 179.7 560 170.3 600 177.7C640 185 680 209 720 209.8C760 210.7 800 188.3 840 181.7C880 175 920 184 940 188.5L960 193L960 0L940 0C920 0 880 0 840 0C800 0 760 0 720 0C680 0 640 0 600 0C560 0 520 0 480 0C440 0 400 0 360 0C320 0 280 0 240 0C200 0 160 0 120 0C80 0 40 0 20 0L0 0Z" fill="#012126"></path><path d="M0 188L20 192C40 196 80 204 120 197C160 190 200 168 240 161.3C280 154.7 320 163.3 360 162.7C400 162 440 152 480 154.7C520 157.3 560 172.7 600 176.2C640 179.7 680 171.3 720 166.8C760 162.3 800 161.7 840 160.8C880 160 920 159 940 158.5L960 158L960 0L940 0C920 0 880 0 840 0C800 0 760 0 720 0C680 0 640 0 600 0C560 0 520 0 480 0C440 0 400 0 360 0C320 0 280 0 240 0C200 0 160 0 120 0C80 0 40 0 20 0L0 0Z" fill="#021e23"></path><path d="M0 172L20 163.7C40 155.3 80 138.7 120 140C160 141.3 200 160.7 240 164.5C280 168.3 320 156.7 360 145.5C400 134.3 440 123.7 480 124.2C520 124.7 560 136.3 600 143.3C640 150.3 680 152.7 720 151.2C760 149.7 800 144.3 840 141.8C880 139.3 920 139.7 940 139.8L960 140L960 0L940 0C920 0 880 0 840 0C800 0 760 0 720 0C680 0 640 0 600 0C560 0 520 0 480 0C440 0 400 0 360 0C320 0 280 0 240 0C200 0 160 0 120 0C80 0 40 0 20 0L0 0Z" fill="#011b1f"></path><path d="M0 118L20 118.8C40 119.7 80 121.3 120 118.7C160 116 200 109 240 109.5C280 110 320 118 360 115.8C400 113.7 440 101.3 480 100.8C520 100.3 560 111.7 600 113.2C640 114.7 680 106.3 720 102.8C760 99.3 800 100.7 840 109.2C880 117.7 920 133.3 940 141.2L960 149L960 0L940 0C920 0 880 0 840 0C800 0 760 0 720 0C680 0 640 0 600 0C560 0 520 0 480 0C440 0 400 0 360 0C320 0 280 0 240 0C200 0 160 0 120 0C80 0 40 0 20 0L0 0Z" fill="#00171b"></path><path d="M0 85L20 83.7C40 82.3 80 79.7 120 82.7C160 85.7 200 94.3 240 92.7C280 91 320 79 360 78.2C400 77.3 440 87.7 480 87.3C520 87 560 76 600 77.2C640 78.3 680 91.7 720 91.3C760 91 800 77 840 75.5C880 74 920 85 940 90.5L960 96L960 0L940 0C920 0 880 0 840 0C800 0 760 0 720 0C680 0 640 0 600 0C560 0 520 0 480 0C440 0 400 0 360 0C320 0 280 0 240 0C200 0 160 0 120 0C80 0 40 0 20 0L0 0Z" fill="#001317"></path><path d="M0 50L20 53C40 56 80 62 120 63C160 64 200 60 240 58.7C280 57.3 320 58.7 360 58.5C400 58.3 440 56.7 480 56.8C520 57 560 59 600 57.2C640 55.3 680 49.7 720 51.8C760 54 800 64 840 63.5C880 63 920 52 940 46.5L960 41L960 0L940 0C920 0 880 0 840 0C800 0 760 0 720 0C680 0 640 0 600 0C560 0 520 0 480 0C440 0 400 0 360 0C320 0 280 0 240 0C200 0 160 0 120 0C80 0 40 0 20 0L0 0Z" fill="#000d13"></path><path d="M0 23L20 22.7C40 22.3 80 21.7 120 23.7C160 25.7 200 30.3 240 30.7C280 31 320 27 360 24.7C400 22.3 440 21.7 480 21.2C520 20.7 560 20.3 600 19.7C640 19 680 18 720 20.2C760 22.3 800 27.7 840 29.5C880 31.3 920 29.7 940 28.8L960 28L960 0L940 0C920 0 880 0 840 0C800 0 760 0 720 0C680 0 640 0 600 0C560 0 520 0 480 0C440 0 400 0 360 0C320 0 280 0 240 0C200 0 160 0 120 0C80 0 40 0 20 0L0 0Z" fill="#000000"></path></svg>