<svg id="visual" viewBox="0 0 960 300" width="960" height="300" xmlns="http://www.w3.org/2000/svg" xmlns:xlink="http://www.w3.org/1999/xlink" version="1.1"><rect x="0" y="0" width="960" height="300" fill="#00252A"></rect><path d="M0 256L14.5 247.7C29 239.3 58 222.7 87.2 212.5C116.3 202.3 145.7 198.7 174.8 198C204 197.3 233 199.7 262 195.5C291 191.3 320 180.7 349 189.5C378 198.3 407 226.7 436.2 239.2C465.3 251.7 494.7 248.3 523.8 250.3C553 252.3 582 259.7 611 250.8C640 242 669 217 698 212.3C727 207.7 756 223.3 785.2 236.7C814.3 250 843.7 261 872.8 262.8C902 264.7 931 257.3 945.5 253.7L960 250L960 0L945.5 0C931 0 902 0 872.8 0C843.7 0 814.3 0 785.2 0C756 0 727 0 698 0C669 0 640 0 611 0C582 0 553 0 523.8 0C494.7 0 465.3 0 436.2 0C407 0 378 0 349 0C320 0 291 0 262 0C233 0 204 0 174.8 0C145.7 0 116.3 0 87.2 0C58 0 29 0 14.5 0L0 0Z" fill="#00252a"></path><path d="M0 150L14.5 159.5C29 169 58 188 87.2 188C116.3 188 145.7 169 174.8 173.7C204 178.3 233 206.7 262 215.5C291 224.3 320 213.7 349 213.3C378 213 407 223 436.2 217.7C465.3 212.3 494.7 191.7 523.8 181.7C553 171.7 582 172.3 611 175.3C640 178.3 669 183.7 698 191C727 198.3 756 207.7 785.2 216C814.3 224.3 843.7 231.7 872.8 219.2C902 206.7 931 174.3 945.5 158.2L960 142L960 0L945.5 0C931 0 902 0 872.8 0C843.7 0 814.3 0 785.2 0C756 0 727 0 698 0C669 0 640 0 611 0C582 0 553 0 523.8 0C494.7 0 465.3 0 436.2 0C407 0 378 0 349 0C320 0 291 0 262 0C233 0 204 0 174.8 0C145.7 0 116.3 0 87.2 0C58 0 29 0 14.5 0L0 0Z" fill="#012126"></path><path d="M0 162L14.5 169.7C29 177.3 58 192.7 87.2 196.7C116.3 200.7 145.7 193.3 174.8 184.5C204 175.7 233 165.3 262 163.8C291 162.3 320 169.7 349 166.7C378 163.7 407 150.3 436.2 145.2C465.3 140 494.7 143 523.8 153C553 163 582 180 611 177.2C640 174.3 669 151.7 698 139.5C727 127.3 756 125.7 785.2 138.2C814.3 150.7 843.7 177.3 872.8 177.2C902 177 931 150 945.5 136.5L960 123L960 0L945.5 0C931 0 902 0 872.8 0C843.7 0 814.3 0 785.2 0C756 0 727 0 698 0C669 0 640 0 611 0C582 0 553 0 523.8 0C494.7 0 465.3 0 436.2 0C407 0 378 0 349 0C320 0 291 0 262 0C233 0 204 0 174.8 0C145.7 0 116.3 0 87.2 0C58 0 29 0 14.5 0L0 0Z" fill="#021e23"></path><path d="M0 135L14.5 142.2C29 149.3 58 163.7 87.2 167.3C116.3 171 145.7 164 174.8 151.2C204 138.3 233 119.7 262 112.3C291 105 320 109 349 116.3C378 123.7 407 134.3 436.2 143.2C465.3 152 494.7 159 523.8 162.7C553 166.3 582 166.7 611 166.8C640 167 669 167 698 159.7C727 152.3 756 137.7 785.2 133.5C814.3 129.3 843.7 135.7 872.8 136.8C902 138 931 134 945.5 132L960 130L960 0L945.5 0C931 0 902 0 872.8 0C843.7 0 814.3 0 785.2 0C756 0 727 0 698 0C669 0 640 0 611 0C582 0 553 0 523.8 0C494.7 0 465.3 0 436.2 0C407 0 378 0 349 0C320 0 291 0 262 0C233 0 204 0 174.8 0C145.7 0 116.3 0 87.2 0C58 0 29 0 14.5 0L0 0Z" fill="#011b1f"></path><path d="M0 86L14.5 88C29 90 58 94 87.2 95.2C116.3 96.3 145.7 94.7 174.8 102C204 109.3 233 125.7 262 128.3C291 131 320 120 349 111.7C378 103.3 407 97.7 436.2 102.8C465.3 108 494.7 124 523.8 125C553 126 582 112 611 103.5C640 95 669 92 698 95.5C727 99 756 109 785.2 108.5C814.3 108 843.7 97 872.8 93.2C902 89.3 931 92.7 945.5 94.3L960 96L960 0L945.5 0C931 0 902 0 872.8 0C843.7 0 814.3 0 785.2 0C756 0 727 0 698 0C669 0 640 0 611 0C582 0 553 0 523.8 0C494.7 0 465.3 0 436.2 0C407 0 378 0 349 0C320 0 291 0 262 0C233 0 204 0 174.8 0C145.7 0 116.3 0 87.2 0C58 0 29 0 14.5 0L0 0Z" fill="#00171b"></path><path d="M0 63L14.5 72.2C29 81.3 58 99.7 87.2 108.3C116.3 117 145.7 116 174.8 107.7C204 99.3 233 83.7 262 77.2C291 70.7 320 73.3 349 77C378 80.7 407 85.3 436.2 88C465.3 90.7 494.7 91.3 523.8 91.3C553 91.3 582 90.7 611 85C640 79.3 669 68.7 698 72.3C727 76 756 94 785.2 99.7C814.3 105.3 843.7 98.7 872.8 89.5C902 80.3 931 68.7 945.5 62.8L960 57L960 0L945.5 0C931 0 902 0 872.8 0C843.7 0 814.3 0 785.2 0C756 0 727 0 698 0C669 0 640 0 611 0C582 0 553 0 523.8 0C494.7 0 465.3 0 436.2 0C407 0 378 0 349 0C320 0 291 0 262 0C233 0 204 0 174.8 0C145.7 0 116.3 0 87.2 0C58 0 29 0 14.5 0L0 0Z" fill="#001317"></path><path d="M0 66L14.5 69.2C29 72.3 58 78.7 87.2 81.3C116.3 84 145.7 83 174.8 82.2C204 81.3 233 80.7 262 72.3C291 64 320 48 349 47.2C378 46.3 407 60.7 436.2 69.7C465.3 78.7 494.7 82.3 523.8 78.7C553 75 582 64 611 61.8C640 59.7 669 66.3 698 72C727 77.7 756 82.3 785.2 84.7C814.3 87 843.7 87 872.8 84.2C902 81.3 931 75.7 945.5 72.8L960 70L960 0L945.5 0C931 0 902 0 872.8 0C843.7 0 814.3 0 785.2 0C756 0 727 0 698 0C669 0 640 0 611 0C582 0 553 0 523.8 0C494.7 0 465.3 0 436.2 0C407 0 378 0 349 0C320 0 291 0 262 0C233 0 204 0 174.8 0C145.7 0 116.3 0 87.2 0C58 0 29 0 14.5 0L0 0Z" fill="#000d13"></path><path d="M0 14L14.5 14C29 14 58 14 87.2 17.7C116.3 21.3 145.7 28.7 174.8 34.5C204 40.3 233 44.7 262 47.2C291 49.7 320 50.3 349 45C378 39.7 407 28.3 436.2 21.7C465.3 15 494.7 13 523.8 18C553 23 582 35 611 41C640 47 669 47 698 43.7C727 40.3 756 33.7 785.2 29.8C814.3 26 843.7 25 872.8 28.5C902 32 931 40 945.5 44L960 48L960 0L945.5 0C931 0 902 0 872.8 0C843.7 0 814.3 0 785.2 0C756 0 727 0 698 0C669 0 640 0 611 0C582 0 553 0 523.8 0C494.7 0 465.3 0 436.2 0C407 0 378 0 349 0C320 0 291 0 262 0C233 0 204 0 174.8 0C145.7 0 116.3 0 87.2 0C58 0 29 0 14.5 0L0 0Z" fill="#000000"></path></svg>