<svg id="visual" viewBox="0 0 960 300" width="960" height="300" xmlns="http://www.w3.org/2000/svg" xmlns:xlink="http://www.w3.org/1999/xlink" version="1.1"><path d="M0 22L14.5 19.5C29 17 58 12 87.2 12C116.3 12 145.7 17 174.8 18C204 19 233 16 262 14.5C291 13 320 13 349 16C378 19 407 25 436.2 23.5C465.3 22 494.7 13 523.8 12C553 11 582 18 611 21C640 24 669 23 698 20.5C727 18 756 14 785.2 12C814.3 10 843.7 10 872.8 13.5C902 17 931 24 945.5 27.5L960 31L960 0L945.5 0C931 0 902 0 872.8 0C843.7 0 814.3 0 785.2 0C756 0 727 0 698 0C669 0 640 0 611 0C582 0 553 0 523.8 0C494.7 0 465.3 0 436.2 0C407 0 378 0 349 0C320 0 291 0 262 0C233 0 204 0 174.8 0C145.7 0 116.3 0 87.2 0C58 0 29 0 14.5 0L0 0Z" fill="#000000"></path><path d="M0 22L14.5 22.5C29 23 58 24 87.2 25.5C116.3 27 145.7 29 174.8 29C204 29 233 27 262 25.5C291 24 320 23 349 26.5C378 30 407 38 436.2 37C465.3 36 494.7 26 523.8 24C553 22 582 28 611 32.5C640 37 669 40 698 40C727 40 756 37 785.2 31.5C814.3 26 843.7 18 872.8 20.5C902 23 931 36 945.5 42.5L960 49L960 29L945.5 25.5C931 22 902 15 872.8 11.5C843.7 8 814.3 8 785.2 10C756 12 727 16 698 18.5C669 21 640 22 611 19C582 16 553 9 523.8 10C494.7 11 465.3 20 436.2 21.5C407 23 378 17 349 14C320 11 291 11 262 12.5C233 14 204 17 174.8 16C145.7 15 116.3 10 87.2 10C58 10 29 15 14.5 17.5L0 20Z" fill="#001115"></path><path d="M0 37L14.5 40.5C29 44 58 51 87.2 50C116.3 49 145.7 40 174.8 38C204 36 233 41 262 43.5C291 46 320 46 349 46C378 46 407 46 436.2 41.5C465.3 37 494.7 28 523.8 27C553 26 582 33 611 42C640 51 669 62 698 63.5C727 65 756 57 785.2 52C814.3 47 843.7 45 872.8 47C902 49 931 55 945.5 58L960 61L960 47L945.5 40.5C931 34 902 21 872.8 18.5C843.7 16 814.3 24 785.2 29.5C756 35 727 38 698 38C669 38 640 35 611 30.5C582 26 553 20 523.8 22C494.7 24 465.3 34 436.2 35C407 36 378 28 349 24.5C320 21 291 22 262 23.5C233 25 204 27 174.8 27C145.7 27 116.3 25 87.2 23.5C58 22 29 21 14.5 20.5L0 20Z" fill="#00181c"></path><path d="M0 82L14.5 78.5C29 75 58 68 87.2 71.5C116.3 75 145.7 89 174.8 98C204 107 233 111 262 108.5C291 106 320 97 349 93.5C378 90 407 92 436.2 95.5C465.3 99 494.7 104 523.8 102C553 100 582 91 611 93C640 95 669 108 698 113.5C727 119 756 117 785.2 107C814.3 97 843.7 79 872.8 75.5C902 72 931 83 945.5 88.5L960 94L960 59L945.5 56C931 53 902 47 872.8 45C843.7 43 814.3 45 785.2 50C756 55 727 63 698 61.5C669 60 640 49 611 40C582 31 553 24 523.8 25C494.7 26 465.3 35 436.2 39.5C407 44 378 44 349 44C320 44 291 44 262 41.5C233 39 204 34 174.8 36C145.7 38 116.3 47 87.2 48C58 49 29 42 14.5 38.5L0 35Z" fill="#021d22"></path><path d="M0 100L14.5 98C29 96 58 92 87.2 99.5C116.3 107 145.7 126 174.8 138.5C204 151 233 157 262 153.5C291 150 320 137 349 131C378 125 407 126 436.2 126C465.3 126 494.7 125 523.8 117.5C553 110 582 96 611 95.5C640 95 669 108 698 118C727 128 756 135 785.2 131C814.3 127 843.7 112 872.8 110.5C902 109 931 121 945.5 127L960 133L960 92L945.5 86.5C931 81 902 70 872.8 73.5C843.7 77 814.3 95 785.2 105C756 115 727 117 698 111.5C669 106 640 93 611 91C582 89 553 98 523.8 100C494.7 102 465.3 97 436.2 93.5C407 90 378 88 349 91.5C320 95 291 104 262 106.5C233 109 204 105 174.8 96C145.7 87 116.3 73 87.2 69.5C58 66 29 73 14.5 76.5L0 80Z" fill="#012328"></path><path d="M0 127L14.5 130C29 133 58 139 87.2 148.5C116.3 158 145.7 171 174.8 175C204 179 233 174 262 187C291 200 320 231 349 239C378 247 407 232 436.2 215.5C465.3 199 494.7 181 523.8 179.5C553 178 582 193 611 193.5C640 194 669 180 698 185.5C727 191 756 216 785.2 222.5C814.3 229 843.7 217 872.8 208C902 199 931 193 945.5 190L960 187L960 131L945.5 125C931 119 902 107 872.8 108.5C843.7 110 814.3 125 785.2 129C756 133 727 126 698 116C669 106 640 93 611 93.5C582 94 553 108 523.8 115.5C494.7 123 465.3 124 436.2 124C407 124 378 123 349 129C320 135 291 148 262 151.5C233 155 204 149 174.8 136.5C145.7 124 116.3 105 87.2 97.5C58 90 29 94 14.5 96L0 98Z" fill="#00252a"></path><path d="M0 145L14.5 146.5C29 148 58 151 87.2 159C116.3 167 145.7 180 174.8 184C204 188 233 183 262 196C291 209 320 240 349 249C378 258 407 245 436.2 229.5C465.3 214 494.7 196 523.8 195C553 194 582 210 611 208C640 206 669 186 698 189.5C727 193 756 220 785.2 228C814.3 236 843.7 225 872.8 216C902 207 931 200 945.5 196.5L960 193L960 185L945.5 188C931 191 902 197 872.8 206C843.7 215 814.3 227 785.2 220.5C756 214 727 189 698 183.5C669 178 640 192 611 191.5C582 191 553 176 523.8 177.5C494.7 179 465.3 197 436.2 213.5C407 230 378 245 349 237C320 229 291 198 262 185C233 172 204 177 174.8 173C145.7 169 116.3 156 87.2 146.5C58 137 29 131 14.5 128L0 125Z" fill="#00252a"></path><path d="M0 157L14.5 159C29 161 58 165 87.2 175C116.3 185 145.7 201 174.8 205C204 209 233 201 262 212.5C291 224 320 255 349 262.5C378 270 407 254 436.2 237.5C465.3 221 494.7 204 523.8 204C553 204 582 221 611 218C640 215 669 192 698 196C727 200 756 231 785.2 241.5C814.3 252 843.7 242 872.8 232.5C902 223 931 214 945.5 209.5L960 205L960 191L945.5 194.5C931 198 902 205 872.8 214C843.7 223 814.3 234 785.2 226C756 218 727 191 698 187.5C669 184 640 204 611 206C582 208 553 192 523.8 193C494.7 194 465.3 212 436.2 227.5C407 243 378 256 349 247C320 238 291 207 262 194C233 181 204 186 174.8 182C145.7 178 116.3 165 87.2 157C58 149 29 146 14.5 144.5L0 143Z" fill="#012328"></path><path d="M0 211L14.5 210.5C29 210 58 209 87.2 216C116.3 223 145.7 238 174.8 245C204 252 233 251 262 257C291 263 320 276 349 276C378 276 407 263 436.2 246C465.3 229 494.7 208 523.8 209C553 210 582 233 611 239.5C640 246 669 236 698 238.5C727 241 756 256 785.2 257C814.3 258 843.7 245 872.8 237.5C902 230 931 228 945.5 227L960 226L960 203L945.5 207.5C931 212 902 221 872.8 230.5C843.7 240 814.3 250 785.2 239.5C756 229 727 198 698 194C669 190 640 213 611 216C582 219 553 202 523.8 202C494.7 202 465.3 219 436.2 235.5C407 252 378 268 349 260.5C320 253 291 222 262 210.5C233 199 204 207 174.8 203C145.7 199 116.3 183 87.2 173C58 163 29 159 14.5 157L0 155Z" fill="#021d22"></path><path d="M0 226L14.5 227.5C29 229 58 232 87.2 236.5C116.3 241 145.7 247 174.8 251C204 255 233 257 262 264C291 271 320 283 349 286.5C378 290 407 285 436.2 274.5C465.3 264 494.7 248 523.8 247.5C553 247 582 262 611 266.5C640 271 669 265 698 266.5C727 268 756 277 785.2 277.5C814.3 278 843.7 270 872.8 264C902 258 931 254 945.5 252L960 250L960 224L945.5 225C931 226 902 228 872.8 235.5C843.7 243 814.3 256 785.2 255C756 254 727 239 698 236.5C669 234 640 244 611 237.5C582 231 553 208 523.8 207C494.7 206 465.3 227 436.2 244C407 261 378 274 349 274C320 274 291 261 262 255C233 249 204 250 174.8 243C145.7 236 116.3 221 87.2 214C58 207 29 208 14.5 208.5L0 209Z" fill="#00181c"></path><path d="M0 268L14.5 268C29 268 58 268 87.2 270C116.3 272 145.7 276 174.8 281C204 286 233 292 262 295C291 298 320 298 349 296.5C378 295 407 292 436.2 290C465.3 288 494.7 287 523.8 285.5C553 284 582 282 611 280C640 278 669 276 698 277C727 278 756 282 785.2 285C814.3 288 843.7 290 872.8 290C902 290 931 288 945.5 287L960 286L960 248L945.5 250C931 252 902 256 872.8 262C843.7 268 814.3 276 785.2 275.5C756 275 727 266 698 264.5C669 263 640 269 611 264.5C582 260 553 245 523.8 245.5C494.7 246 465.3 262 436.2 272.5C407 283 378 288 349 284.5C320 281 291 269 262 262C233 255 204 253 174.8 249C145.7 245 116.3 239 87.2 234.5C58 230 29 227 14.5 225.5L0 224Z" fill="#001115"></path><path d="M0 301L14.5 301C29 301 58 301 87.2 301C116.3 301 145.7 301 174.8 301C204 301 233 301 262 301C291 301 320 301 349 301C378 301 407 301 436.2 301C465.3 301 494.7 301 523.8 301C553 301 582 301 611 301C640 301 669 301 698 301C727 301 756 301 785.2 301C814.3 301 843.7 301 872.8 301C902 301 931 301 945.5 301L960 301L960 284L945.5 285C931 286 902 288 872.8 288C843.7 288 814.3 286 785.2 283C756 280 727 276 698 275C669 274 640 276 611 278C582 280 553 282 523.8 283.5C494.7 285 465.3 286 436.2 288C407 290 378 293 349 294.5C320 296 291 296 262 293C233 290 204 284 174.8 279C145.7 274 116.3 270 87.2 268C58 266 29 266 14.5 266L0 266Z" fill="#000000"></path></svg>