<svg width="2609" height="2610" xmlns="http://www.w3.org/2000/svg" xmlns:xlink="http://www.w3.org/1999/xlink" xml:space="preserve" overflow="hidden"><g transform="translate(-645 67)"><path d="M702.5 1238C702.5 549.025 1260.8-9.50013 1949.5-9.50013 2638.2-9.50013 3196.5 549.025 3196.5 1238 3196.5 1926.98 2638.2 2485.5 1949.5 2485.5 1260.8 2485.5 702.5 1926.98 702.5 1238Z" stroke="#E6AA04" stroke-width="114.583" stroke-miterlimit="8" fill="none" fill-rule="evenodd"/><path d="M760.5 829.526C922.231 1410.47 1083.96 1991.42 1201.08 1908.23 1318.19 1825.04 1246.16 287.403 1463.19 330.384 1680.23 373.366 2361.54 2137.92 2503.29 2166.12 2645.04 2194.31 2231.88 658.524 2313.67 499.538 2395.47 340.552 2867.65 1178 2994.06 1212.2 3120.47 1246.4 3096.3 975.571 3072.14 704.74" stroke="#E6AA04" stroke-width="114.583" stroke-miterlimit="8" fill="none" fill-rule="evenodd"/></g></svg>