<svg id="visual" viewBox="0 0 960 400" width="960" height="400" xmlns="http://www.w3.org/2000/svg" xmlns:xlink="http://www.w3.org/1999/xlink" version="1.1"><rect x="0" y="0" width="960" height="400" fill="#cccccc"></rect><defs><linearGradient id="grad1_0" x1="58.3%" y1="100%" x2="100%" y2="0%"><stop offset="2.0000000000000036%" stop-color="#00252a" stop-opacity="1"></stop><stop offset="98%" stop-color="#00252a" stop-opacity="1"></stop></linearGradient></defs><defs><linearGradient id="grad1_1" x1="58.3%" y1="100%" x2="100%" y2="0%"><stop offset="2.0000000000000036%" stop-color="#00252a" stop-opacity="1"></stop><stop offset="98%" stop-color="#1e3a3e" stop-opacity="1"></stop></linearGradient></defs><defs><linearGradient id="grad1_2" x1="58.3%" y1="100%" x2="100%" y2="0%"><stop offset="2.0000000000000036%" stop-color="#395054" stop-opacity="1"></stop><stop offset="98%" stop-color="#1e3a3e" stop-opacity="1"></stop></linearGradient></defs><defs><linearGradient id="grad1_3" x1="58.3%" y1="100%" x2="100%" y2="0%"><stop offset="2.0000000000000036%" stop-color="#395054" stop-opacity="1"></stop><stop offset="98%" stop-color="#55676a" stop-opacity="1"></stop></linearGradient></defs><defs><linearGradient id="grad1_4" x1="58.3%" y1="100%" x2="100%" y2="0%"><stop offset="2.0000000000000036%" stop-color="#717f82" stop-opacity="1"></stop><stop offset="98%" stop-color="#55676a" stop-opacity="1"></stop></linearGradient></defs><defs><linearGradient id="grad1_5" x1="58.3%" y1="100%" x2="100%" y2="0%"><stop offset="2.0000000000000036%" stop-color="#717f82" stop-opacity="1"></stop><stop offset="98%" stop-color="#8f989a" stop-opacity="1"></stop></linearGradient></defs><defs><linearGradient id="grad1_6" x1="58.3%" y1="100%" x2="100%" y2="0%"><stop offset="2.0000000000000036%" stop-color="#adb2b3" stop-opacity="1"></stop><stop offset="98%" stop-color="#8f989a" stop-opacity="1"></stop></linearGradient></defs><defs><linearGradient id="grad1_7" x1="58.3%" y1="100%" x2="100%" y2="0%"><stop offset="2.0000000000000036%" stop-color="#adb2b3" stop-opacity="1"></stop><stop offset="98%" stop-color="#cccccc" stop-opacity="1"></stop></linearGradient></defs><defs><linearGradient id="grad2_0" x1="0%" y1="100%" x2="41.7%" y2="0%"><stop offset="2.0000000000000036%" stop-color="#00252a" stop-opacity="1"></stop><stop offset="98%" stop-color="#00252a" stop-opacity="1"></stop></linearGradient></defs><defs><linearGradient id="grad2_1" x1="0%" y1="100%" x2="41.7%" y2="0%"><stop offset="2.0000000000000036%" stop-color="#1e3a3e" stop-opacity="1"></stop><stop offset="98%" stop-color="#00252a" stop-opacity="1"></stop></linearGradient></defs><defs><linearGradient id="grad2_2" x1="0%" y1="100%" x2="41.7%" y2="0%"><stop offset="2.0000000000000036%" stop-color="#1e3a3e" stop-opacity="1"></stop><stop offset="98%" stop-color="#395054" stop-opacity="1"></stop></linearGradient></defs><defs><linearGradient id="grad2_3" x1="0%" y1="100%" x2="41.7%" y2="0%"><stop offset="2.0000000000000036%" stop-color="#55676a" stop-opacity="1"></stop><stop offset="98%" stop-color="#395054" stop-opacity="1"></stop></linearGradient></defs><defs><linearGradient id="grad2_4" x1="0%" y1="100%" x2="41.7%" y2="0%"><stop offset="2.0000000000000036%" stop-color="#55676a" stop-opacity="1"></stop><stop offset="98%" stop-color="#717f82" stop-opacity="1"></stop></linearGradient></defs><defs><linearGradient id="grad2_5" x1="0%" y1="100%" x2="41.7%" y2="0%"><stop offset="2.0000000000000036%" stop-color="#8f989a" stop-opacity="1"></stop><stop offset="98%" stop-color="#717f82" stop-opacity="1"></stop></linearGradient></defs><defs><linearGradient id="grad2_6" x1="0%" y1="100%" x2="41.7%" y2="0%"><stop offset="2.0000000000000036%" stop-color="#8f989a" stop-opacity="1"></stop><stop offset="98%" stop-color="#adb2b3" stop-opacity="1"></stop></linearGradient></defs><defs><linearGradient id="grad2_7" x1="0%" y1="100%" x2="41.7%" y2="0%"><stop offset="2.0000000000000036%" stop-color="#cccccc" stop-opacity="1"></stop><stop offset="98%" stop-color="#adb2b3" stop-opacity="1"></stop></linearGradient></defs><g transform="translate(960, 400)"><path d="M-400 0C-394 -16.3 -388 -32.5 -374.3 -45.4C-360.6 -58.3 -339.2 -67.8 -340.8 -84C-342.4 -100.2 -367 -122.9 -373.1 -141.5C-379.1 -160 -366.6 -174.3 -350.6 -184C-334.7 -193.7 -315.4 -198.9 -307.8 -212.5C-300.2 -226.1 -304.2 -248.1 -299.4 -265.2C-294.6 -282.4 -281 -294.5 -258 -291.2C-234.9 -287.9 -202.5 -269.1 -185.8 -269.1C-169 -269.1 -167.9 -287.9 -165 -314.3C-162 -340.8 -157.3 -375 -141.5 -373.1C-125.7 -371.2 -98.8 -333.1 -82.3 -334C-65.8 -334.9 -59.6 -374.6 -47.6 -392.1C-35.6 -409.6 -17.8 -404.8 0 -400L0 0Z" fill="#bcbfbf"></path><path d="M-350 0C-344.7 -14.2 -339.5 -28.5 -327.5 -39.8C-315.5 -51 -296.8 -59.4 -298.2 -73.5C-299.6 -87.6 -321.2 -107.6 -326.4 -123.8C-331.7 -140 -320.7 -152.5 -306.8 -161C-292.9 -169.5 -276 -174 -269.3 -185.9C-262.6 -197.8 -266.2 -217.1 -262 -232.1C-257.8 -247.1 -245.9 -257.7 -225.7 -254.8C-205.6 -251.9 -177.2 -235.5 -162.5 -235.5C-147.9 -235.5 -146.9 -251.9 -144.4 -275C-141.8 -298.2 -137.6 -328.1 -123.8 -326.4C-110 -324.8 -86.5 -291.5 -72 -292.3C-57.6 -293 -52.2 -327.8 -41.7 -343.1C-31.2 -358.4 -15.6 -354.2 0 -350L0 0Z" fill="#9ea5a6"></path><path d="M-300 0C-295.5 -12.2 -291 -24.4 -280.7 -34.1C-270.4 -43.8 -254.4 -50.9 -255.6 -63C-256.8 -75.1 -275.3 -92.2 -279.8 -106.1C-284.3 -120 -274.9 -130.7 -263 -138C-251 -145.3 -236.6 -149.1 -230.8 -159.3C-225.1 -169.5 -228.2 -186.1 -224.6 -198.9C-221 -211.8 -210.7 -220.9 -193.5 -218.4C-176.2 -215.9 -151.9 -201.8 -139.3 -201.8C-126.8 -201.8 -125.9 -215.9 -123.7 -235.8C-121.5 -255.6 -118 -281.2 -106.1 -279.8C-94.3 -278.4 -74.1 -249.8 -61.7 -250.5C-49.4 -251.2 -44.7 -281 -35.7 -294.1C-26.7 -307.2 -13.4 -303.6 0 -300L0 0Z" fill="#808c8e"></path><path d="M-250 0C-246.2 -10.2 -242.5 -20.3 -233.9 -28.4C-225.3 -36.5 -212 -42.4 -213 -52.5C-214 -62.6 -229.4 -76.8 -233.2 -88.4C-236.9 -100 -229.1 -109 -219.2 -115C-209.2 -121.1 -197.1 -124.3 -192.4 -132.8C-187.6 -141.3 -190.1 -155.1 -187.1 -165.8C-184.1 -176.5 -175.6 -184.1 -161.2 -182C-146.8 -179.9 -126.6 -168.2 -116.1 -168.2C-105.6 -168.2 -104.9 -179.9 -103.1 -196.5C-101.3 -213 -98.3 -234.4 -88.4 -233.2C-78.6 -232 -61.8 -208.2 -51.5 -208.8C-41.1 -209.3 -37.3 -234.1 -29.8 -245.1C-22.3 -256 -11.1 -253 0 -250L0 0Z" fill="#637376"></path><path d="M-200 0C-197 -8.1 -194 -16.3 -187.1 -22.7C-180.3 -29.2 -169.6 -33.9 -170.4 -42C-171.2 -50.1 -183.5 -61.5 -186.5 -70.7C-189.6 -80 -183.3 -87.2 -175.3 -92C-167.4 -96.9 -157.7 -99.4 -153.9 -106.2C-150.1 -113 -152.1 -124.1 -149.7 -132.6C-147.3 -141.2 -140.5 -147.2 -129 -145.6C-117.5 -143.9 -101.3 -134.6 -92.9 -134.6C-84.5 -134.6 -84 -143.9 -82.5 -157.2C-81 -170.4 -78.6 -187.5 -70.7 -186.5C-62.8 -185.6 -49.4 -166.6 -41.2 -167C-32.9 -167.4 -29.8 -187.3 -23.8 -196.1C-17.8 -204.8 -8.9 -202.4 0 -200L0 0Z" fill="#475c5f"></path><path d="M-150 0C-147.7 -6.1 -145.5 -12.2 -140.3 -17C-135.2 -21.9 -127.2 -25.4 -127.8 -31.5C-128.4 -37.6 -137.6 -46.1 -139.9 -53.1C-142.2 -60 -137.5 -65.4 -131.5 -69C-125.5 -72.7 -118.3 -74.6 -115.4 -79.7C-112.6 -84.8 -114.1 -93.1 -112.3 -99.5C-110.5 -105.9 -105.4 -110.4 -96.7 -109.2C-88.1 -107.9 -75.9 -100.9 -69.7 -100.9C-63.4 -100.9 -63 -108 -61.9 -117.9C-60.8 -127.8 -59 -140.6 -53.1 -139.9C-47.1 -139.2 -37.1 -124.9 -30.9 -125.3C-24.7 -125.6 -22.4 -140.5 -17.9 -147C-13.4 -153.6 -6.7 -151.8 0 -150L0 0Z" fill="#2c4549"></path><path d="M-100 0C-98.5 -4.1 -97 -8.1 -93.6 -11.4C-90.1 -14.6 -84.8 -17 -85.2 -21C-85.6 -25 -91.8 -30.7 -93.3 -35.4C-94.8 -40 -91.6 -43.6 -87.7 -46C-83.7 -48.4 -78.9 -49.7 -76.9 -53.1C-75 -56.5 -76.1 -62 -74.9 -66.3C-73.7 -70.6 -70.2 -73.6 -64.5 -72.8C-58.7 -72 -50.6 -67.3 -46.4 -67.3C-42.3 -67.3 -42 -72 -41.2 -78.6C-40.5 -85.2 -39.3 -93.7 -35.4 -93.3C-31.4 -92.8 -24.7 -83.3 -20.6 -83.5C-16.5 -83.7 -14.9 -93.7 -11.9 -98C-8.9 -102.4 -4.5 -101.2 0 -100L0 0Z" fill="#0f2f34"></path><path d="M-50 0C-49.2 -2 -48.5 -4.1 -46.8 -5.7C-45.1 -7.3 -42.4 -8.5 -42.6 -10.5C-42.8 -12.5 -45.9 -15.4 -46.6 -17.7C-47.4 -20 -45.8 -21.8 -43.8 -23C-41.8 -24.2 -39.4 -24.9 -38.5 -26.6C-37.5 -28.3 -38 -31 -37.4 -33.2C-36.8 -35.3 -35.1 -36.8 -32.2 -36.4C-29.4 -36 -25.3 -33.6 -23.2 -33.6C-21.1 -33.6 -21 -36 -20.6 -39.3C-20.3 -42.6 -19.7 -46.9 -17.7 -46.6C-15.7 -46.4 -12.4 -41.6 -10.3 -41.8C-8.2 -41.9 -7.5 -46.8 -6 -49C-4.5 -51.2 -2.2 -50.6 0 -50L0 0Z" fill="#00252a"></path></g><g transform="translate(0, 0)"><path d="M400 0C386.7 14.5 373.4 29 373.3 45.3C373.2 61.7 386.3 79.9 380.6 93.8C374.9 107.7 350.5 117.4 331.9 125.9C313.4 134.4 300.7 141.8 301.1 158C301.4 174.2 314.8 199.1 316 218.1C317.2 237.1 306.3 250.2 292.7 259.3C279 268.4 262.7 273.5 250 282.2C237.3 290.8 228.3 303 217 314.4C205.7 325.8 192.3 336.4 173.8 331.2C155.3 325.9 131.8 304.6 119.1 314.2C106.5 323.7 104.6 364 94.3 382.6C84 401.1 65.3 397.8 48.2 397.1C31.1 396.4 15.6 398.2 0 400L0 0Z" fill="#bcbfbf"></path><path d="M350 0C338.3 12.7 326.7 25.3 326.6 39.7C326.5 54 338 69.9 333 82.1C328.1 94.3 306.7 102.7 290.4 110.1C274.2 117.6 263.1 124.1 263.4 138.3C263.7 152.4 275.5 174.2 276.5 190.9C277.6 207.5 268 218.9 256.1 226.9C244.1 234.8 229.9 239.3 218.7 246.9C207.6 254.5 199.7 265.1 189.9 275.1C180 285.1 168.2 294.4 152.1 289.8C135.9 285.1 115.4 266.5 104.3 274.9C93.2 283.2 91.5 318.5 82.5 334.7C73.5 350.9 57.2 348.1 42.2 347.4C27.2 346.8 13.6 348.4 0 350L0 0Z" fill="#9ea5a6"></path><path d="M300 0C290 10.9 280 21.7 279.9 34C279.9 46.3 289.7 59.9 285.5 70.4C281.2 80.8 262.9 88 248.9 94.4C235 100.8 225.5 106.4 225.8 118.5C226.1 130.6 236.1 149.4 237 163.6C237.9 177.9 229.7 187.6 219.5 194.5C209.3 201.3 197 205.2 187.5 211.6C178 218.1 171.2 227.2 162.8 235.8C154.3 244.3 144.2 252.3 130.4 248.4C116.5 244.4 98.9 228.5 89.4 235.6C79.8 242.8 78.4 273 70.7 286.9C63 300.8 49 298.4 36.2 297.8C23.3 297.3 11.7 298.6 0 300L0 0Z" fill="#808c8e"></path><path d="M250 0C241.7 9.1 233.3 18.1 233.3 28.3C233.2 38.5 241.4 49.9 237.9 58.6C234.3 67.3 219.1 73.4 207.5 78.7C195.9 84 187.9 88.6 188.2 98.8C188.4 108.9 196.8 124.5 197.5 136.3C198.3 148.2 191.4 156.4 182.9 162.1C174.4 167.7 164.2 171 156.2 176.4C148.3 181.8 142.7 189.4 135.6 196.5C128.6 203.6 120.2 210.3 108.6 207C97.1 203.7 82.4 190.4 74.5 196.4C66.5 202.3 65.4 227.5 58.9 239.1C52.5 250.7 40.8 248.6 30.1 248.2C19.4 247.7 9.7 248.9 0 250L0 0Z" fill="#637376"></path><path d="M200 0C193.3 7.2 186.7 14.5 186.6 22.7C186.6 30.8 193.1 39.9 190.3 46.9C187.5 53.9 175.2 58.7 166 62.9C156.7 67.2 150.3 70.9 150.5 79C150.7 87.1 157.4 99.6 158 109.1C158.6 118.6 153.2 125.1 146.3 129.6C139.5 134.2 131.3 136.8 125 141.1C118.7 145.4 114.1 151.5 108.5 157.2C102.9 162.9 96.1 168.2 86.9 165.6C77.7 162.9 65.9 152.3 59.6 157.1C53.2 161.9 52.3 182 47.1 191.3C42 200.5 32.7 198.9 24.1 198.5C15.6 198.2 7.8 199.1 0 200L0 0Z" fill="#475c5f"></path><path d="M150 0C145 5.4 140 10.9 140 17C139.9 23.1 144.9 30 142.7 35.2C140.6 40.4 131.4 44 124.5 47.2C117.5 50.4 112.8 53.2 112.9 59.3C113 65.3 118.1 74.7 118.5 81.8C119 88.9 114.9 93.8 109.8 97.2C104.6 100.6 98.5 102.6 93.7 105.8C89 109.1 85.6 113.6 81.4 117.9C77.2 122.2 72.1 126.2 65.2 124.2C58.2 122.2 49.4 114.2 44.7 117.8C39.9 121.4 39.2 136.5 35.4 143.5C31.5 150.4 24.5 149.2 18.1 148.9C11.7 148.6 5.8 149.3 0 150L0 0Z" fill="#2c4549"></path><path d="M100 0C96.7 3.6 93.3 7.2 93.3 11.3C93.3 15.4 96.6 20 95.2 23.5C93.7 26.9 87.6 29.3 83 31.5C78.3 33.6 75.2 35.5 75.3 39.5C75.4 43.5 78.7 49.8 79 54.5C79.3 59.3 76.6 62.5 73.2 64.8C69.8 67.1 65.7 68.4 62.5 70.5C59.3 72.7 57.1 75.7 54.3 78.6C51.4 81.4 48.1 84.1 43.5 82.8C38.8 81.5 33 76.2 29.8 78.5C26.6 80.9 26.1 91 23.6 95.6C21 100.3 16.3 99.5 12.1 99.3C7.8 99.1 3.9 99.5 0 100L0 0Z" fill="#0f2f34"></path><path d="M50 0C48.3 1.8 46.7 3.6 46.7 5.7C46.6 7.7 48.3 10 47.6 11.7C46.9 13.5 43.8 14.7 41.5 15.7C39.2 16.8 37.6 17.7 37.6 19.8C37.7 21.8 39.4 24.9 39.5 27.3C39.7 29.6 38.3 31.3 36.6 32.4C34.9 33.5 32.8 34.2 31.2 35.3C29.7 36.4 28.5 37.9 27.1 39.3C25.7 40.7 24 42.1 21.7 41.4C19.4 40.7 16.5 38.1 14.9 39.3C13.3 40.5 13.1 45.5 11.8 47.8C10.5 50.1 8.2 49.7 6 49.6C3.9 49.5 1.9 49.8 0 50L0 0Z" fill="#00252a"></path></g></svg>