<svg id="visual" viewBox="0 0 960 400" width="960" height="400" xmlns="http://www.w3.org/2000/svg" xmlns:xlink="http://www.w3.org/1999/xlink" version="1.1"><rect x="0" y="0" width="960" height="400" fill="#cccccc"></rect><defs><linearGradient id="grad1_0" x1="58.3%" y1="0%" x2="100%" y2="100%"><stop offset="2.0000000000000036%" stop-color="#00252a" stop-opacity="1"></stop><stop offset="98%" stop-color="#00252a" stop-opacity="1"></stop></linearGradient></defs><defs><linearGradient id="grad1_1" x1="58.3%" y1="0%" x2="100%" y2="100%"><stop offset="2.0000000000000036%" stop-color="#00252a" stop-opacity="1"></stop><stop offset="98%" stop-color="#1e3a3e" stop-opacity="1"></stop></linearGradient></defs><defs><linearGradient id="grad1_2" x1="58.3%" y1="0%" x2="100%" y2="100%"><stop offset="2.0000000000000036%" stop-color="#395054" stop-opacity="1"></stop><stop offset="98%" stop-color="#1e3a3e" stop-opacity="1"></stop></linearGradient></defs><defs><linearGradient id="grad1_3" x1="58.3%" y1="0%" x2="100%" y2="100%"><stop offset="2.0000000000000036%" stop-color="#395054" stop-opacity="1"></stop><stop offset="98%" stop-color="#55676a" stop-opacity="1"></stop></linearGradient></defs><defs><linearGradient id="grad1_4" x1="58.3%" y1="0%" x2="100%" y2="100%"><stop offset="2.0000000000000036%" stop-color="#717f82" stop-opacity="1"></stop><stop offset="98%" stop-color="#55676a" stop-opacity="1"></stop></linearGradient></defs><defs><linearGradient id="grad1_5" x1="58.3%" y1="0%" x2="100%" y2="100%"><stop offset="2.0000000000000036%" stop-color="#717f82" stop-opacity="1"></stop><stop offset="98%" stop-color="#8f989a" stop-opacity="1"></stop></linearGradient></defs><defs><linearGradient id="grad1_6" x1="58.3%" y1="0%" x2="100%" y2="100%"><stop offset="2.0000000000000036%" stop-color="#adb2b3" stop-opacity="1"></stop><stop offset="98%" stop-color="#8f989a" stop-opacity="1"></stop></linearGradient></defs><defs><linearGradient id="grad1_7" x1="58.3%" y1="0%" x2="100%" y2="100%"><stop offset="2.0000000000000036%" stop-color="#adb2b3" stop-opacity="1"></stop><stop offset="98%" stop-color="#cccccc" stop-opacity="1"></stop></linearGradient></defs><defs><linearGradient id="grad2_0" x1="0%" y1="0%" x2="41.7%" y2="100%"><stop offset="2.0000000000000036%" stop-color="#00252a" stop-opacity="1"></stop><stop offset="98%" stop-color="#00252a" stop-opacity="1"></stop></linearGradient></defs><defs><linearGradient id="grad2_1" x1="0%" y1="0%" x2="41.7%" y2="100%"><stop offset="2.0000000000000036%" stop-color="#1e3a3e" stop-opacity="1"></stop><stop offset="98%" stop-color="#00252a" stop-opacity="1"></stop></linearGradient></defs><defs><linearGradient id="grad2_2" x1="0%" y1="0%" x2="41.7%" y2="100%"><stop offset="2.0000000000000036%" stop-color="#1e3a3e" stop-opacity="1"></stop><stop offset="98%" stop-color="#395054" stop-opacity="1"></stop></linearGradient></defs><defs><linearGradient id="grad2_3" x1="0%" y1="0%" x2="41.7%" y2="100%"><stop offset="2.0000000000000036%" stop-color="#55676a" stop-opacity="1"></stop><stop offset="98%" stop-color="#395054" stop-opacity="1"></stop></linearGradient></defs><defs><linearGradient id="grad2_4" x1="0%" y1="0%" x2="41.7%" y2="100%"><stop offset="2.0000000000000036%" stop-color="#55676a" stop-opacity="1"></stop><stop offset="98%" stop-color="#717f82" stop-opacity="1"></stop></linearGradient></defs><defs><linearGradient id="grad2_5" x1="0%" y1="0%" x2="41.7%" y2="100%"><stop offset="2.0000000000000036%" stop-color="#8f989a" stop-opacity="1"></stop><stop offset="98%" stop-color="#717f82" stop-opacity="1"></stop></linearGradient></defs><defs><linearGradient id="grad2_6" x1="0%" y1="0%" x2="41.7%" y2="100%"><stop offset="2.0000000000000036%" stop-color="#8f989a" stop-opacity="1"></stop><stop offset="98%" stop-color="#adb2b3" stop-opacity="1"></stop></linearGradient></defs><defs><linearGradient id="grad2_7" x1="0%" y1="0%" x2="41.7%" y2="100%"><stop offset="2.0000000000000036%" stop-color="#cccccc" stop-opacity="1"></stop><stop offset="98%" stop-color="#adb2b3" stop-opacity="1"></stop></linearGradient></defs><g transform="translate(960, 0)"><path d="M0 400C-14.4 374.9 -28.8 349.8 -40.3 331.6C-51.8 313.3 -60.4 302 -76.6 310.7C-92.8 319.4 -116.5 348.3 -135.5 357.2C-154.4 366 -168.6 354.9 -180.3 343.6C-192 332.2 -201.2 320.6 -218.7 316.8C-236.2 313.1 -262 317.1 -265.2 299.4C-268.5 281.7 -249.2 242.2 -256 226.8C-262.7 211.3 -295.5 219.9 -310.3 214.2C-325 208.4 -321.9 188.3 -333.8 175.2C-345.8 162.1 -372.9 155.9 -367.5 139.4C-362 122.9 -324 96 -323.3 79.7C-322.6 63.3 -359.2 57.5 -378.2 45.9C-397.2 34.4 -398.6 17.2 -400 0L0 0Z" fill="#bcbfbf"></path><path d="M0 350C-12.6 328 -25.2 306.1 -35.2 290.1C-45.3 274.2 -52.8 264.2 -67 271.9C-81.2 279.5 -101.9 304.8 -118.5 312.5C-135.1 320.3 -147.5 310.5 -157.8 300.6C-168 290.7 -176.1 280.5 -191.4 277.2C-206.7 273.9 -229.2 277.5 -232.1 262C-234.9 246.5 -218.1 212 -224 198.4C-229.9 184.9 -258.5 192.4 -271.5 187.4C-284.4 182.4 -281.6 164.8 -292.1 153.3C-302.6 141.8 -326.3 136.4 -321.5 121.9C-316.8 107.5 -283.5 84 -282.9 69.7C-282.3 55.4 -314.3 50.3 -330.9 40.2C-347.6 30.1 -348.8 15 -350 0L0 0Z" fill="#9ea5a6"></path><path d="M0 300C-10.8 281.2 -21.6 262.4 -30.2 248.7C-38.8 235 -45.3 226.5 -57.4 233C-69.6 239.6 -87.4 261.2 -101.6 267.9C-115.8 274.5 -126.5 266.2 -135.2 257.7C-144 249.2 -150.9 240.5 -164 237.6C-177.1 234.8 -196.5 237.8 -198.9 224.6C-201.4 211.3 -186.9 181.7 -192 170.1C-197.1 158.5 -221.6 164.9 -232.7 160.6C-243.8 156.3 -241.4 141.3 -250.4 131.4C-259.3 121.5 -279.7 116.9 -275.6 104.5C-271.5 92.1 -243 72 -242.5 59.8C-242 47.5 -269.4 43.1 -283.7 34.4C-297.9 25.8 -299 12.9 -300 0L0 0Z" fill="#808c8e"></path><path d="M0 250C-9 234.3 -18 218.6 -25.2 207.2C-32.4 195.8 -37.7 188.7 -47.9 194.2C-58 199.7 -72.8 217.7 -84.7 223.2C-96.5 228.8 -105.4 221.8 -112.7 214.7C-120 207.6 -125.8 200.4 -136.7 198C-147.6 195.7 -163.7 198.2 -165.8 187.1C-167.8 176.1 -155.8 151.4 -160 141.7C-164.2 132.1 -184.7 137.4 -193.9 133.9C-203.2 130.3 -201.2 117.7 -208.6 109.5C-216.1 101.3 -233.1 97.4 -229.7 87.1C-226.3 76.8 -202.5 60 -202.1 49.8C-201.6 39.6 -224.5 35.9 -236.4 28.7C-248.3 21.5 -249.1 10.7 -250 0L0 0Z" fill="#637376"></path><path d="M0 200C-7.2 187.5 -14.4 174.9 -20.1 165.8C-25.9 156.7 -30.2 151 -38.3 155.4C-46.4 159.7 -58.2 174.2 -67.7 178.6C-77.2 183 -84.3 177.5 -90.2 171.8C-96 166.1 -100.6 160.3 -109.4 158.4C-118.1 156.5 -131 158.6 -132.6 149.7C-134.3 140.8 -124.6 121.1 -128 113.4C-131.4 105.7 -147.7 110 -155.1 107.1C-162.5 104.2 -160.9 94.2 -166.9 87.6C-172.9 81 -186.5 77.9 -183.7 69.7C-181 61.4 -162 48 -161.7 39.8C-161.3 31.7 -179.6 28.7 -189.1 23C-198.6 17.2 -199.3 8.6 -200 0L0 0Z" fill="#475c5f"></path><path d="M0 150C-5.4 140.6 -10.8 131.2 -15.1 124.3C-19.4 117.5 -22.6 113.2 -28.7 116.5C-34.8 119.8 -43.7 130.6 -50.8 133.9C-57.9 137.3 -63.2 133.1 -67.6 128.8C-72 124.6 -75.5 120.2 -82 118.8C-88.6 117.4 -98.2 118.9 -99.5 112.3C-100.7 105.6 -93.5 90.8 -96 85C-98.5 79.3 -110.8 82.5 -116.3 80.3C-121.9 78.2 -120.7 70.6 -125.2 65.7C-129.7 60.8 -139.8 58.4 -137.8 52.3C-135.8 46.1 -121.5 36 -121.2 29.9C-121 23.8 -134.7 21.5 -141.8 17.2C-149 12.9 -149.5 6.4 -150 0L0 0Z" fill="#2c4549"></path><path d="M0 100C-3.6 93.7 -7.2 87.5 -10.1 82.9C-12.9 78.3 -15.1 75.5 -19.1 77.7C-23.2 79.9 -29.1 87.1 -33.9 89.3C-38.6 91.5 -42.2 88.7 -45.1 85.9C-48 83.1 -50.3 80.2 -54.7 79.2C-59 78.3 -65.5 79.3 -66.3 74.9C-67.1 70.4 -62.3 60.6 -64 56.7C-65.7 52.8 -73.9 55 -77.6 53.5C-81.3 52.1 -80.5 47.1 -83.5 43.8C-86.4 40.5 -93.2 39 -91.9 34.8C-90.5 30.7 -81 24 -80.8 19.9C-80.7 15.8 -89.8 14.4 -94.6 11.5C-99.3 8.6 -99.7 4.3 -100 0L0 0Z" fill="#0f2f34"></path><path d="M0 50C-1.8 46.9 -3.6 43.7 -5 41.4C-6.5 39.2 -7.5 37.7 -9.6 38.8C-11.6 39.9 -14.6 43.5 -16.9 44.6C-19.3 45.8 -21.1 44.4 -22.5 42.9C-24 41.5 -25.2 40.1 -27.3 39.6C-29.5 39.1 -32.7 39.6 -33.2 37.4C-33.6 35.2 -31.2 30.3 -32 28.3C-32.8 26.4 -36.9 27.5 -38.8 26.8C-40.6 26.1 -40.2 23.5 -41.7 21.9C-43.2 20.3 -46.6 19.5 -45.9 17.4C-45.3 15.4 -40.5 12 -40.4 10C-40.3 7.9 -44.9 7.2 -47.3 5.7C-49.7 4.3 -49.8 2.1 -50 0L0 0Z" fill="#00252a"></path></g><g transform="translate(0, 400)"><path d="M0 -400C17.2 -399.3 34.4 -398.5 46.2 -380.2C58 -361.9 64.3 -326 80.2 -325.3C96 -324.5 121.3 -358.8 137.9 -363.7C154.6 -368.6 162.6 -344.1 173.3 -330.3C184.1 -316.4 197.7 -313.2 214.7 -311.1C231.8 -309 252.4 -308.1 262.6 -296.4C272.8 -284.7 272.5 -262.1 279.2 -247.3C285.9 -232.5 299.5 -225.5 315.2 -217.6C330.9 -209.6 348.8 -200.9 354.2 -185.9C359.6 -170.9 352.4 -149.8 347.8 -131.9C343.2 -114 341.1 -99.4 349.5 -86.2C358 -72.9 377 -61.1 387.2 -47C397.3 -32.9 398.7 -16.4 400 0L0 0Z" fill="#bcbfbf"></path><path d="M0 -350C15 -349.3 30.1 -348.7 40.4 -332.7C50.7 -316.7 56.3 -285.3 70.1 -284.6C84 -283.9 106.1 -314 120.7 -318.3C135.3 -322.6 142.3 -301.1 151.7 -289C161.1 -276.9 172.9 -274 187.9 -272.2C202.8 -270.4 220.9 -269.6 229.8 -259.4C238.7 -249.1 238.5 -229.4 244.3 -216.4C250.1 -203.5 262 -197.3 275.8 -190.4C289.6 -183.4 305.2 -175.7 309.9 -162.7C314.6 -149.6 308.4 -131.1 304.3 -115.4C300.3 -99.8 298.5 -87 305.8 -75.4C313.2 -63.8 329.9 -53.5 338.8 -41.1C347.7 -28.8 348.8 -14.4 350 0L0 0Z" fill="#9ea5a6"></path><path d="M0 -300C12.9 -299.4 25.8 -298.9 34.6 -285.2C43.5 -271.4 48.3 -244.5 60.1 -243.9C72 -243.4 91 -269.1 103.5 -272.8C115.9 -276.5 121.9 -258.1 130 -247.7C138.1 -237.3 148.2 -234.9 161 -233.3C173.9 -231.8 189.3 -231.1 196.9 -222.3C204.6 -213.5 204.4 -196.6 209.4 -185.5C214.4 -174.4 224.6 -169.1 236.4 -163.2C248.2 -157.2 261.6 -150.6 265.6 -139.4C269.7 -128.2 264.3 -112.4 260.9 -98.9C257.4 -85.5 255.8 -74.5 262.2 -64.6C268.5 -54.7 282.7 -45.8 290.4 -35.3C298 -24.7 299 -12.3 300 0L0 0Z" fill="#808c8e"></path><path d="M0 -250C10.7 -249.5 21.5 -249.1 28.9 -237.6C36.2 -226.2 40.2 -203.8 50.1 -203.3C60 -202.8 75.8 -224.3 86.2 -227.3C96.6 -230.4 101.6 -215.1 108.3 -206.4C115.1 -197.8 123.5 -195.7 134.2 -194.4C144.9 -193.1 157.8 -192.6 164.1 -185.3C170.5 -177.9 170.3 -163.8 174.5 -154.6C178.7 -145.3 187.2 -140.9 197 -136C206.8 -131 218 -125.5 221.4 -116.2C224.7 -106.8 220.3 -93.6 217.4 -82.4C214.5 -71.3 213.2 -62.1 218.5 -53.8C223.7 -45.6 235.6 -38.2 242 -29.4C248.3 -20.6 249.2 -10.3 250 0L0 0Z" fill="#637376"></path><path d="M0 -200C8.6 -199.6 17.2 -199.3 23.1 -190.1C29 -181 32.2 -163 40.1 -162.6C48 -162.2 60.6 -179.4 69 -181.9C77.3 -184.3 81.3 -172.1 86.7 -165.1C92.1 -158.2 98.8 -156.6 107.4 -155.5C115.9 -154.5 126.2 -154.1 131.3 -148.2C136.4 -142.3 136.3 -131.1 139.6 -123.7C142.9 -116.3 149.7 -112.7 157.6 -108.8C165.5 -104.8 174.4 -100.4 177.1 -92.9C179.8 -85.5 176.2 -74.9 173.9 -66C171.6 -57 170.5 -49.7 174.8 -43.1C179 -36.5 188.5 -30.6 193.6 -23.5C198.7 -16.4 199.3 -8.2 200 0L0 0Z" fill="#475c5f"></path><path d="M0 -150C6.4 -149.7 12.9 -149.4 17.3 -142.6C21.7 -135.7 24.1 -122.3 30.1 -122C36 -121.7 45.5 -134.6 51.7 -136.4C58 -138.2 61 -129.1 65 -123.9C69 -118.7 74.1 -117.4 80.5 -116.7C86.9 -115.9 94.7 -115.5 98.5 -111.2C102.3 -106.8 102.2 -98.3 104.7 -92.8C107.2 -87.2 112.3 -84.6 118.2 -81.6C124.1 -78.6 130.8 -75.3 132.8 -69.7C134.8 -64.1 132.2 -56.2 130.4 -49.5C128.7 -42.8 127.9 -37.3 131.1 -32.3C134.2 -27.3 141.4 -22.9 145.2 -17.6C149 -12.3 149.5 -6.2 150 0L0 0Z" fill="#2c4549"></path><path d="M0 -100C4.3 -99.8 8.6 -99.6 11.5 -95.1C14.5 -90.5 16.1 -81.5 20 -81.3C24 -81.1 30.3 -89.7 34.5 -90.9C38.6 -92.2 40.6 -86 43.3 -82.6C46 -79.1 49.4 -78.3 53.7 -77.8C58 -77.3 63.1 -77 65.6 -74.1C68.2 -71.2 68.1 -65.5 69.8 -61.8C71.5 -58.1 74.9 -56.4 78.8 -54.4C82.7 -52.4 87.2 -50.2 88.5 -46.5C89.9 -42.7 88.1 -37.5 87 -33C85.8 -28.5 85.3 -24.8 87.4 -21.5C89.5 -18.2 94.2 -15.3 96.8 -11.8C99.3 -8.2 99.7 -4.1 100 0L0 0Z" fill="#0f2f34"></path><path d="M0 -50C2.1 -49.9 4.3 -49.8 5.8 -47.5C7.2 -45.2 8 -40.8 10 -40.7C12 -40.6 15.2 -44.9 17.2 -45.5C19.3 -46.1 20.3 -43 21.7 -41.3C23 -39.6 24.7 -39.1 26.8 -38.9C29 -38.6 31.6 -38.5 32.8 -37.1C34.1 -35.6 34.1 -32.8 34.9 -30.9C35.7 -29.1 37.4 -28.2 39.4 -27.2C41.4 -26.2 43.6 -25.1 44.3 -23.2C44.9 -21.4 44.1 -18.7 43.5 -16.5C42.9 -14.3 42.6 -12.4 43.7 -10.8C44.7 -9.1 47.1 -7.6 48.4 -5.9C49.7 -4.1 49.8 -2.1 50 0L0 0Z" fill="#00252a"></path></g></svg>