<svg id="visual" viewBox="0 0 960 300" width="960" height="300" xmlns="http://www.w3.org/2000/svg" xmlns:xlink="http://www.w3.org/1999/xlink" version="1.1"><rect x="0" y="0" width="960" height="300" fill="#D7D7D7"></rect><path d="M0 96L13.3 90.7C26.7 85.3 53.3 74.7 80 74C106.7 73.3 133.3 82.7 160 82.7C186.7 82.7 213.3 73.3 240 70.5C266.7 67.7 293.3 71.3 320 71.5C346.7 71.7 373.3 68.3 400 67.8C426.7 67.3 453.3 69.7 480 73.3C506.7 77 533.3 82 560 82C586.7 82 613.3 77 640 75.3C666.7 73.7 693.3 75.3 720 80C746.7 84.7 773.3 92.3 800 91.7C826.7 91 853.3 82 880 80.5C906.7 79 933.3 85 946.7 88L960 91L960 0L946.7 0C933.3 0 906.7 0 880 0C853.3 0 826.7 0 800 0C773.3 0 746.7 0 720 0C693.3 0 666.7 0 640 0C613.3 0 586.7 0 560 0C533.3 0 506.7 0 480 0C453.3 0 426.7 0 400 0C373.3 0 346.7 0 320 0C293.3 0 266.7 0 240 0C213.3 0 186.7 0 160 0C133.3 0 106.7 0 80 0C53.3 0 26.7 0 13.3 0L0 0Z" fill="#54cc98"></path><path d="M0 60L13.3 60C26.7 60 53.3 60 80 62.5C106.7 65 133.3 70 160 73.3C186.7 76.7 213.3 78.3 240 75.7C266.7 73 293.3 66 320 61.8C346.7 57.7 373.3 56.3 400 56.8C426.7 57.3 453.3 59.7 480 59.7C506.7 59.7 533.3 57.3 560 60.3C586.7 63.3 613.3 71.7 640 76C666.7 80.3 693.3 80.7 720 80.5C746.7 80.3 773.3 79.7 800 75.5C826.7 71.3 853.3 63.7 880 63.7C906.7 63.7 933.3 71.3 946.7 75.2L960 79L960 0L946.7 0C933.3 0 906.7 0 880 0C853.3 0 826.7 0 800 0C773.3 0 746.7 0 720 0C693.3 0 666.7 0 640 0C613.3 0 586.7 0 560 0C533.3 0 506.7 0 480 0C453.3 0 426.7 0 400 0C373.3 0 346.7 0 320 0C293.3 0 266.7 0 240 0C213.3 0 186.7 0 160 0C133.3 0 106.7 0 80 0C53.3 0 26.7 0 13.3 0L0 0Z" fill="#34ae8c"></path><path d="M0 53L13.3 54.8C26.7 56.7 53.3 60.3 80 62.8C106.7 65.3 133.3 66.7 160 67.3C186.7 68 213.3 68 240 68.5C266.7 69 293.3 70 320 70C346.7 70 373.3 69 400 67.2C426.7 65.3 453.3 62.7 480 60C506.7 57.3 533.3 54.7 560 52.5C586.7 50.3 613.3 48.7 640 48.8C666.7 49 693.3 51 720 53.7C746.7 56.3 773.3 59.7 800 58.5C826.7 57.3 853.3 51.7 880 52.8C906.7 54 933.3 62 946.7 66L960 70L960 0L946.7 0C933.3 0 906.7 0 880 0C853.3 0 826.7 0 800 0C773.3 0 746.7 0 720 0C693.3 0 666.7 0 640 0C613.3 0 586.7 0 560 0C533.3 0 506.7 0 480 0C453.3 0 426.7 0 400 0C373.3 0 346.7 0 320 0C293.3 0 266.7 0 240 0C213.3 0 186.7 0 160 0C133.3 0 106.7 0 80 0C53.3 0 26.7 0 13.3 0L0 0Z" fill="#17917e"></path><path d="M0 40L13.3 40.8C26.7 41.7 53.3 43.3 80 43.8C106.7 44.3 133.3 43.7 160 43.7C186.7 43.7 213.3 44.3 240 46.5C266.7 48.7 293.3 52.3 320 54.8C346.7 57.3 373.3 58.7 400 59.3C426.7 60 453.3 60 480 57.2C506.7 54.3 533.3 48.7 560 44.7C586.7 40.7 613.3 38.3 640 40.7C666.7 43 693.3 50 720 52.5C746.7 55 773.3 53 800 50.8C826.7 48.7 853.3 46.3 880 47.7C906.7 49 933.3 54 946.7 56.5L960 59L960 0L946.7 0C933.3 0 906.7 0 880 0C853.3 0 826.7 0 800 0C773.3 0 746.7 0 720 0C693.3 0 666.7 0 640 0C613.3 0 586.7 0 560 0C533.3 0 506.7 0 480 0C453.3 0 426.7 0 400 0C373.3 0 346.7 0 320 0C293.3 0 266.7 0 240 0C213.3 0 186.7 0 160 0C133.3 0 106.7 0 80 0C53.3 0 26.7 0 13.3 0L0 0Z" fill="#00746c"></path><path d="M0 40L13.3 37.8C26.7 35.7 53.3 31.3 80 31.3C106.7 31.3 133.3 35.7 160 38.2C186.7 40.7 213.3 41.3 240 40C266.7 38.7 293.3 35.3 320 33.7C346.7 32 373.3 32 400 33.7C426.7 35.3 453.3 38.7 480 39.7C506.7 40.7 533.3 39.3 560 36.7C586.7 34 613.3 30 640 30.5C666.7 31 693.3 36 720 37.7C746.7 39.3 773.3 37.7 800 35.8C826.7 34 853.3 32 880 31.5C906.7 31 933.3 32 946.7 32.5L960 33L960 0L946.7 0C933.3 0 906.7 0 880 0C853.3 0 826.7 0 800 0C773.3 0 746.7 0 720 0C693.3 0 666.7 0 640 0C613.3 0 586.7 0 560 0C533.3 0 506.7 0 480 0C453.3 0 426.7 0 400 0C373.3 0 346.7 0 320 0C293.3 0 266.7 0 240 0C213.3 0 186.7 0 160 0C133.3 0 106.7 0 80 0C53.3 0 26.7 0 13.3 0L0 0Z" fill="#005858"></path><path d="M0 32L13.3 31.8C26.7 31.7 53.3 31.3 80 31.7C106.7 32 133.3 33 160 33.3C186.7 33.7 213.3 33.3 240 32.3C266.7 31.3 293.3 29.7 320 27.2C346.7 24.7 373.3 21.3 400 19.5C426.7 17.7 453.3 17.3 480 18C506.7 18.7 533.3 20.3 560 21.7C586.7 23 613.3 24 640 24.3C666.7 24.7 693.3 24.3 720 24.2C746.7 24 773.3 24 800 25.7C826.7 27.3 853.3 30.7 880 31.5C906.7 32.3 933.3 30.7 946.7 29.8L960 29L960 0L946.7 0C933.3 0 906.7 0 880 0C853.3 0 826.7 0 800 0C773.3 0 746.7 0 720 0C693.3 0 666.7 0 640 0C613.3 0 586.7 0 560 0C533.3 0 506.7 0 480 0C453.3 0 426.7 0 400 0C373.3 0 346.7 0 320 0C293.3 0 266.7 0 240 0C213.3 0 186.7 0 160 0C133.3 0 106.7 0 80 0C53.3 0 26.7 0 13.3 0L0 0Z" fill="#003e42"></path><path d="M0 7L13.3 9.3C26.7 11.7 53.3 16.3 80 16.7C106.7 17 133.3 13 160 12.8C186.7 12.7 213.3 16.3 240 17.8C266.7 19.3 293.3 18.7 320 17.2C346.7 15.7 373.3 13.3 400 12C426.7 10.7 453.3 10.3 480 11.5C506.7 12.7 533.3 15.3 560 15.5C586.7 15.7 613.3 13.3 640 13.8C666.7 14.3 693.3 17.7 720 17.2C746.7 16.7 773.3 12.3 800 10.7C826.7 9 853.3 10 880 10.8C906.7 11.7 933.3 12.3 946.7 12.7L960 13L960 0L946.7 0C933.3 0 906.7 0 880 0C853.3 0 826.7 0 800 0C773.3 0 746.7 0 720 0C693.3 0 666.7 0 640 0C613.3 0 586.7 0 560 0C533.3 0 506.7 0 480 0C453.3 0 426.7 0 400 0C373.3 0 346.7 0 320 0C293.3 0 266.7 0 240 0C213.3 0 186.7 0 160 0C133.3 0 106.7 0 80 0C53.3 0 26.7 0 13.3 0L0 0Z" fill="#00252a"></path></svg>