<svg id="visual" viewBox="0 0 960 400" width="960" height="400" xmlns="http://www.w3.org/2000/svg" xmlns:xlink="http://www.w3.org/1999/xlink" version="1.1"><rect x="0" y="0" width="960" height="400" fill="#cccccc"></rect><defs><linearGradient id="grad1_0" x1="58.3%" y1="0%" x2="100%" y2="100%"><stop offset="2.0000000000000036%" stop-color="#00252a" stop-opacity="1"></stop><stop offset="98%" stop-color="#00252a" stop-opacity="1"></stop></linearGradient></defs><defs><linearGradient id="grad1_1" x1="58.3%" y1="0%" x2="100%" y2="100%"><stop offset="2.0000000000000036%" stop-color="#00252a" stop-opacity="1"></stop><stop offset="98%" stop-color="#1e3a3e" stop-opacity="1"></stop></linearGradient></defs><defs><linearGradient id="grad1_2" x1="58.3%" y1="0%" x2="100%" y2="100%"><stop offset="2.0000000000000036%" stop-color="#395054" stop-opacity="1"></stop><stop offset="98%" stop-color="#1e3a3e" stop-opacity="1"></stop></linearGradient></defs><defs><linearGradient id="grad1_3" x1="58.3%" y1="0%" x2="100%" y2="100%"><stop offset="2.0000000000000036%" stop-color="#395054" stop-opacity="1"></stop><stop offset="98%" stop-color="#55676a" stop-opacity="1"></stop></linearGradient></defs><defs><linearGradient id="grad1_4" x1="58.3%" y1="0%" x2="100%" y2="100%"><stop offset="2.0000000000000036%" stop-color="#717f82" stop-opacity="1"></stop><stop offset="98%" stop-color="#55676a" stop-opacity="1"></stop></linearGradient></defs><defs><linearGradient id="grad1_5" x1="58.3%" y1="0%" x2="100%" y2="100%"><stop offset="2.0000000000000036%" stop-color="#717f82" stop-opacity="1"></stop><stop offset="98%" stop-color="#8f989a" stop-opacity="1"></stop></linearGradient></defs><defs><linearGradient id="grad1_6" x1="58.3%" y1="0%" x2="100%" y2="100%"><stop offset="2.0000000000000036%" stop-color="#adb2b3" stop-opacity="1"></stop><stop offset="98%" stop-color="#8f989a" stop-opacity="1"></stop></linearGradient></defs><defs><linearGradient id="grad1_7" x1="58.3%" y1="0%" x2="100%" y2="100%"><stop offset="2.0000000000000036%" stop-color="#adb2b3" stop-opacity="1"></stop><stop offset="98%" stop-color="#cccccc" stop-opacity="1"></stop></linearGradient></defs><defs><linearGradient id="grad2_0" x1="0%" y1="0%" x2="41.7%" y2="100%"><stop offset="2.0000000000000036%" stop-color="#00252a" stop-opacity="1"></stop><stop offset="98%" stop-color="#00252a" stop-opacity="1"></stop></linearGradient></defs><defs><linearGradient id="grad2_1" x1="0%" y1="0%" x2="41.7%" y2="100%"><stop offset="2.0000000000000036%" stop-color="#1e3a3e" stop-opacity="1"></stop><stop offset="98%" stop-color="#00252a" stop-opacity="1"></stop></linearGradient></defs><defs><linearGradient id="grad2_2" x1="0%" y1="0%" x2="41.7%" y2="100%"><stop offset="2.0000000000000036%" stop-color="#1e3a3e" stop-opacity="1"></stop><stop offset="98%" stop-color="#395054" stop-opacity="1"></stop></linearGradient></defs><defs><linearGradient id="grad2_3" x1="0%" y1="0%" x2="41.7%" y2="100%"><stop offset="2.0000000000000036%" stop-color="#55676a" stop-opacity="1"></stop><stop offset="98%" stop-color="#395054" stop-opacity="1"></stop></linearGradient></defs><defs><linearGradient id="grad2_4" x1="0%" y1="0%" x2="41.7%" y2="100%"><stop offset="2.0000000000000036%" stop-color="#55676a" stop-opacity="1"></stop><stop offset="98%" stop-color="#717f82" stop-opacity="1"></stop></linearGradient></defs><defs><linearGradient id="grad2_5" x1="0%" y1="0%" x2="41.7%" y2="100%"><stop offset="2.0000000000000036%" stop-color="#8f989a" stop-opacity="1"></stop><stop offset="98%" stop-color="#717f82" stop-opacity="1"></stop></linearGradient></defs><defs><linearGradient id="grad2_6" x1="0%" y1="0%" x2="41.7%" y2="100%"><stop offset="2.0000000000000036%" stop-color="#8f989a" stop-opacity="1"></stop><stop offset="98%" stop-color="#adb2b3" stop-opacity="1"></stop></linearGradient></defs><defs><linearGradient id="grad2_7" x1="0%" y1="0%" x2="41.7%" y2="100%"><stop offset="2.0000000000000036%" stop-color="#cccccc" stop-opacity="1"></stop><stop offset="98%" stop-color="#adb2b3" stop-opacity="1"></stop></linearGradient></defs><g transform="translate(960, 0)"><path d="M0 400C-20.5 403.3 -41.1 406.7 -56.2 391C-71.3 375.3 -81.1 340.5 -96.6 329.1C-112.2 317.7 -133.6 329.5 -147.5 322.9C-161.3 316.3 -167.5 291.2 -176.8 275.1C-186 259 -198.3 251.8 -210.2 242.6C-222.1 233.4 -233.6 222.3 -244.1 211.5C-254.6 200.8 -264.2 190.4 -284.3 182.7C-304.5 175.1 -335.1 170.2 -339.3 154.9C-343.5 139.7 -321.2 113.9 -330.1 96.9C-339 79.9 -379.1 71.6 -395.9 56.9C-412.8 42.2 -406.4 21.1 -400 0L0 0Z" fill="#bcbfbf"></path><path d="M0 350C-18 352.9 -35.9 355.8 -49.2 342.1C-62.4 328.4 -70.9 298 -84.6 288C-98.2 278 -116.9 288.3 -129 282.6C-141.1 276.8 -146.6 254.8 -154.7 240.7C-162.8 226.6 -173.5 220.3 -183.9 212.3C-194.3 204.3 -204.4 194.5 -213.6 185.1C-222.8 175.7 -231.2 166.6 -248.8 159.9C-266.4 153.2 -293.2 149 -296.9 135.6C-300.5 122.2 -281 99.7 -288.8 84.8C-296.6 69.9 -331.7 62.7 -346.4 49.8C-361.2 36.9 -355.6 18.5 -350 0L0 0Z" fill="#9ea5a6"></path><path d="M0 300C-15.4 302.5 -30.8 305 -42.2 293.2C-53.5 281.5 -60.8 255.4 -72.5 246.8C-84.2 238.3 -100.2 247.1 -110.6 242.2C-121 237.2 -125.7 218.4 -132.6 206.3C-139.5 194.2 -148.7 188.8 -157.7 181.9C-166.6 175.1 -175.2 166.7 -183.1 158.6C-191 150.6 -198.2 142.8 -213.3 137.1C-228.3 131.3 -251.3 127.7 -254.5 116.2C-257.6 104.7 -240.9 85.4 -247.5 72.7C-254.2 59.9 -284.3 53.7 -296.9 42.7C-309.6 31.7 -304.8 15.8 -300 0L0 0Z" fill="#808c8e"></path><path d="M0 250C-12.8 252.1 -25.7 254.2 -35.1 244.4C-44.6 234.6 -50.7 212.8 -60.4 205.7C-70.1 198.5 -83.5 206 -92.2 201.8C-100.8 197.7 -104.7 182 -110.5 171.9C-116.3 161.8 -124 157.4 -131.4 151.6C-138.8 145.9 -146 138.9 -152.6 132.2C-159.2 125.5 -165.1 119 -177.7 114.2C-190.3 109.4 -209.4 106.4 -212.1 96.8C-214.7 87.3 -200.7 71.2 -206.3 60.6C-211.9 49.9 -236.9 44.8 -247.5 35.6C-258 26.4 -254 13.2 -250 0L0 0Z" fill="#637376"></path><path d="M0 200C-10.3 201.7 -20.5 203.3 -28.1 195.5C-35.7 187.6 -40.5 170.3 -48.3 164.6C-56.1 158.8 -66.8 164.8 -73.7 161.5C-80.7 158.2 -83.8 145.6 -88.4 137.5C-93 129.5 -99.2 125.9 -105.1 121.3C-111 116.7 -116.8 111.1 -122.1 105.8C-127.3 100.4 -132.1 95.2 -142.2 91.4C-152.2 87.6 -167.6 85.1 -169.6 77.5C-171.7 69.8 -160.6 57 -165 48.5C-169.5 40 -189.5 35.8 -198 28.5C-206.4 21.1 -203.2 10.6 -200 0L0 0Z" fill="#475c5f"></path><path d="M0 150C-7.7 151.3 -15.4 152.5 -21.1 146.6C-26.8 140.7 -30.4 127.7 -36.2 123.4C-42.1 119.1 -50.1 123.6 -55.3 121.1C-60.5 118.6 -62.8 109.2 -66.3 103.2C-69.8 97.1 -74.4 94.4 -78.8 91C-83.3 87.5 -87.6 83.4 -91.5 79.3C-95.5 75.3 -99.1 71.4 -106.6 68.5C-114.2 65.7 -125.7 63.8 -127.2 58.1C-128.8 52.4 -120.4 42.7 -123.8 36.3C-127.1 30 -142.2 26.9 -148.5 21.3C-154.8 15.8 -152.4 7.9 -150 0L0 0Z" fill="#2c4549"></path><path d="M0 100C-5.1 100.8 -10.3 101.7 -14.1 97.7C-17.8 93.8 -20.3 85.1 -24.2 82.3C-28.1 79.4 -33.4 82.4 -36.9 80.7C-40.3 79.1 -41.9 72.8 -44.2 68.8C-46.5 64.7 -49.6 62.9 -52.6 60.6C-55.5 58.4 -58.4 55.6 -61 52.9C-63.7 50.2 -66.1 47.6 -71.1 45.7C-76.1 43.8 -83.8 42.6 -84.8 38.7C-85.9 34.9 -80.3 28.5 -82.5 24.2C-84.7 20 -94.8 17.9 -99 14.2C-103.2 10.6 -101.6 5.3 -100 0L0 0Z" fill="#0f2f34"></path><path d="M0 50C-2.6 50.4 -5.1 50.8 -7 48.9C-8.9 46.9 -10.1 42.6 -12.1 41.1C-14 39.7 -16.7 41.2 -18.4 40.4C-20.2 39.5 -20.9 36.4 -22.1 34.4C-23.3 32.4 -24.8 31.5 -26.3 30.3C-27.8 29.2 -29.2 27.8 -30.5 26.4C-31.8 25.1 -33 23.8 -35.5 22.8C-38.1 21.9 -41.9 21.3 -42.4 19.4C-42.9 17.5 -40.1 14.2 -41.3 12.1C-42.4 10 -47.4 9 -49.5 7.1C-51.6 5.3 -50.8 2.6 -50 0L0 0Z" fill="#00252a"></path></g><g transform="translate(0, 400)"><path d="M0 -400C16.5 -372.7 33.1 -345.5 47.8 -332.6C62.6 -319.7 75.5 -321.2 98.6 -335.8C121.7 -350.4 155.1 -378.1 166.2 -363.9C177.3 -349.6 166.2 -293.4 176.2 -274.2C186.3 -255.1 217.6 -272.9 233.1 -269C248.7 -265.2 248.5 -239.6 260.7 -225.9C273 -212.2 297.8 -210.5 311.3 -200C324.8 -189.6 327 -170.6 340.2 -155.4C353.4 -140.2 377.6 -128.8 380.9 -111.8C384.2 -94.9 366.5 -72.2 366.2 -52.7C365.9 -33.1 383 -16.5 400 0L0 0Z" fill="#bcbfbf"></path><path d="M0 -350C14.5 -326.1 28.9 -302.3 41.8 -291C54.7 -279.7 66 -281.1 86.3 -293.8C106.5 -306.6 135.7 -330.8 145.4 -318.4C155.1 -305.9 145.4 -256.7 154.2 -240C163 -223.2 190.4 -238.8 204 -235.4C217.6 -232 217.4 -209.7 228.1 -197.7C238.9 -185.7 260.5 -184.2 272.4 -175C284.2 -165.9 286.1 -149.2 297.7 -135.9C309.2 -122.6 330.4 -112.7 333.3 -97.9C336.2 -83 320.7 -63.2 320.5 -46.1C320.2 -28.9 335.1 -14.5 350 0L0 0Z" fill="#9ea5a6"></path><path d="M0 -300C12.4 -279.5 24.8 -259.1 35.9 -249.4C46.9 -239.8 56.6 -240.9 74 -251.9C91.3 -262.8 116.3 -283.6 124.6 -272.9C133 -262.2 124.6 -220.1 132.2 -205.7C139.7 -191.3 163.2 -204.7 174.8 -201.8C186.5 -198.9 186.3 -179.7 195.6 -169.4C204.8 -159.2 223.3 -157.8 233.4 -150C243.6 -142.2 245.2 -127.9 255.2 -116.5C265.1 -105.1 283.2 -96.6 285.7 -83.9C288.1 -71.1 274.9 -54.2 274.7 -39.5C274.4 -24.8 287.2 -12.4 300 0L0 0Z" fill="#808c8e"></path><path d="M0 -250C10.3 -233 20.7 -215.9 29.9 -207.9C39.1 -199.8 47.2 -200.8 61.6 -209.9C76.1 -219 96.9 -236.3 103.9 -227.4C110.8 -218.5 103.9 -183.4 110.2 -171.4C116.5 -159.4 136 -170.6 145.7 -168.2C155.4 -165.7 155.3 -149.8 163 -141.2C170.6 -132.7 186.1 -131.5 194.5 -125C203 -118.5 204.4 -106.6 212.6 -97.1C220.9 -87.6 236 -80.5 238.1 -69.9C240.1 -59.3 229.1 -45.1 228.9 -32.9C228.7 -20.7 239.4 -10.3 250 0L0 0Z" fill="#637376"></path><path d="M0 -200C8.3 -186.4 16.5 -172.7 23.9 -166.3C31.3 -159.9 37.7 -160.6 49.3 -167.9C60.9 -175.2 77.5 -189.1 83.1 -181.9C88.6 -174.8 83.1 -146.7 88.1 -137.1C93.2 -127.5 108.8 -136.5 116.6 -134.5C124.3 -132.6 124.2 -119.8 130.4 -113C136.5 -106.1 148.9 -105.2 155.6 -100C162.4 -94.8 163.5 -85.3 170.1 -77.7C176.7 -70.1 188.8 -64.4 190.5 -55.9C192.1 -47.4 183.3 -36.1 183.1 -26.3C183 -16.5 191.5 -8.3 200 0L0 0Z" fill="#475c5f"></path><path d="M0 -150C6.2 -139.8 12.4 -129.5 17.9 -124.7C23.5 -119.9 28.3 -120.5 37 -125.9C45.6 -131.4 58.1 -141.8 62.3 -136.4C66.5 -131.1 62.3 -110 66.1 -102.8C69.9 -95.7 81.6 -102.3 87.4 -100.9C93.2 -99.4 93.2 -89.9 97.8 -84.7C102.4 -79.6 111.7 -78.9 116.7 -75C121.8 -71.1 122.6 -64 127.6 -58.3C132.5 -52.6 141.6 -48.3 142.8 -41.9C144.1 -35.6 137.5 -27.1 137.3 -19.7C137.2 -12.4 143.6 -6.2 150 0L0 0Z" fill="#2c4549"></path><path d="M0 -100C4.1 -93.2 8.3 -86.4 12 -83.1C15.6 -79.9 18.9 -80.3 24.7 -84C30.4 -87.6 38.8 -94.5 41.5 -91C44.3 -87.4 41.5 -73.4 44.1 -68.6C46.6 -63.8 54.4 -68.2 58.3 -67.3C62.2 -66.3 62.1 -59.9 65.2 -56.5C68.3 -53.1 74.4 -52.6 77.8 -50C81.2 -47.4 81.7 -42.6 85.1 -38.8C88.4 -35 94.4 -32.2 95.2 -28C96 -23.7 91.6 -18.1 91.6 -13.2C91.5 -8.3 95.7 -4.1 100 0L0 0Z" fill="#0f2f34"></path><path d="M0 -50C2.1 -46.6 4.1 -43.2 6 -41.6C7.8 -40 9.4 -40.2 12.3 -42C15.2 -43.8 19.4 -47.3 20.8 -45.5C22.2 -43.7 20.8 -36.7 22 -34.3C23.3 -31.9 27.2 -34.1 29.1 -33.6C31.1 -33.1 31.1 -30 32.6 -28.2C34.1 -26.5 37.2 -26.3 38.9 -25C40.6 -23.7 40.9 -21.3 42.5 -19.4C44.2 -17.5 47.2 -16.1 47.6 -14C48 -11.9 45.8 -9 45.8 -6.6C45.7 -4.1 47.9 -2.1 50 0L0 0Z" fill="#00252a"></path></g></svg>